PathFileType	4	(X/Y/Z)	../Python\walking\Walking06\task.trc
DataRate	CameraRate	NumFrames	NumMarkers	Units	OrigDataRate	OrigDataStartFrame	OrigNumFrames
200.000000	200.000000	4	30	mm	200.000000	68	551
Frame#	Time	CLAV			STRN			RASI			RPSI			LPSI			LASI			RTH1			RTH2			RTH3			RTB1			RTB2			RTB3			RD5M			RTOE			LTH1			LTH3			LTB1			LTB2			LTB3			LTOE			LD5M			PE03			T10			PE01			LHEE			PE02			LTH2			C7			RHEE			RBAK			
		X1	Y1	Z1	X2	Y2	Z2	X3	Y3	Z3	X4	Y4	Z4	X5	Y5	Z5	X6	Y6	Z6	X7	Y7	Z7	X8	Y8	Z8	X9	Y9	Z9	X10	Y10	Z10	X11	Y11	Z11	X12	Y12	Z12	X13	Y13	Z13	X14	Y14	Z14	X15	Y15	Z15	X16	Y16	Z16	X17	Y17	Z17	X18	Y18	Z18	X19	Y19	Z19	X20	Y20	Z20	X21	Y21	Z21	X22	Y22	Z22	X23	Y23	Z23	X24	Y24	Z24	X25	Y25	Z25	X26	Y26	Z26	X27	Y27	Z27	X28	Y28	Z28	X29	Y29	Z29	X30	Y30	Z30	

69	0.34	-371.0928344726564	1397.60205078125	192.6966705322267	-323.7596130371095	1203.8798828125	203.8735961914064	-331.1644592285157	999.952026367188	342.1797180175782	-501.2812194824221	1035.428588867188	281.2457580566407	-518.4703369140627	1038.591796875	183.4046936035157	-354.5003967285157	996.7119140625005	64.87134552001956	-291.0076599121095	750.5144042968752	391.5773620605471	-332.2246398925782	705.4642333984377	378.9316711425782	-294.3397216796876	673.3831787109377	371.7025146484376	-124.993751525879	384.5325622558596	327.3723449707032	-144.2105712890626	326.7807617187501	334.0169677734376	-98.65517425537115	310.3983764648439	321.269744873047	91.9908142089844	74.82032012939456	311.5651245117189	123.2816009521485	116.6561279296876	271.9822387695314	-505.4174499511721	709.5989379882815	49.50286102294925	-503.4468078613284	632.5413208007815	66.99938964843753	-633.4230957031252	365.690155029297	105.8957672119141	-674.626159667969	339.670135498047	118.2056579589844	-638.8426513671877	288.4601135253907	120.2917480468751	-584.9288330078127	28.35818099975587	189.537094116211	-634.9119873046877	18.69929313659669	143.1897125244141	-519.4492797851565	1024.13623046875	209.185028076172	-552.9273071289065	1236.013305664063	195.8298339843751	-504.5031433105471	1084.386108398438	232.4788360595704	-793.8559570312505	72.99442291259768	206.4871673583986	-509.0625000000002	1023.825805664063	259.4051513671876	-542.6614990234377	680.5974121093752	68.46763610839847	-484.8467102050784	1491.26318359375	178.9117736816407	-63.83513259887698	22.72685241699219	248.3413391113282	-506.486267089844	1412.71240234375	352.6780395507814	
70	0.345	-363.6168823242189	1396.617797851563	192.9264526367189	-316.060516357422	1202.879760742188	203.9583587646486	-322.7445373535157	998.7521972656255	342.2829895019532	-493.1557312011721	1034.391357421875	281.7093505859376	-510.5957336425784	1037.476196289063	183.890365600586	-346.8858947753907	995.6662597656255	64.62429046630862	-284.207733154297	748.8106079101565	391.8992919921877	-325.6404418945314	704.0718383789065	378.8749389648439	-287.9655151367189	671.7694091796877	371.800506591797	-117.0270462036133	383.7373046875001	327.2468566894532	-135.3889312744141	325.6503295898439	333.9156494140626	-89.63980102539065	309.9430541992189	320.9173889160157	104.5028076171876	76.77620697021487	310.2127075195314	135.0432128906251	119.5683822631837	270.7764587402345	-499.526550292969	709.4885253906252	49.47900772094729	-497.955505371094	632.381530761719	66.78677368164065	-629.644226074219	366.4572143554689	105.7682418823243	-671.113708496094	340.8275451660157	118.0701751708985	-635.792663574219	289.2944641113282	120.2071151733399	-584.8796386718752	28.33428192138673	189.5089111328126	-634.8889160156252	18.72621726989747	143.2366943359376	-511.4819641113284	1023.07568359375	209.6748352050782	-545.3204345703127	1234.814697265625	196.1088256835939	-496.5323486328127	1083.341186523438	232.9301910400392	-793.0256958007817	75.54769134521487	206.1509857177736	-500.9949035644534	1022.781188964844	259.8786010742189	-536.836853027344	680.7026977539065	68.66040039062503	-477.503112792969	1490.18115234375	179.2223663330079	-50.82023239135745	22.73229789733887	246.9601593017579	-498.9909973144534	1411.51123046875	352.9685974121095	
71	0.35	-356.1044006347657	1395.697265625	193.1764678955079	-308.2817687988282	1201.955810546875	204.0572662353517	-314.266815185547	997.6188964843755	342.3897399902345	-484.9536437988284	1033.426635742188	282.1301269531251	-502.6067504882815	1036.420654296875	184.3232116699219	-339.1352844238282	994.6292114257817	64.38720703125003	-277.2936401367189	747.2375488281252	392.2515869140627	-318.9153747558595	702.804382324219	378.827117919922	-281.4236755371095	670.313415527344	371.8824462890626	-109.340805053711	382.8551635742189	327.182586669922	-126.9837875366212	324.4902954101564	333.747528076172	-81.05423736572268	309.3617248535157	320.6026306152345	116.0551834106446	78.27847290039065	309.0301513671876	145.9682159423829	121.9766006469727	269.8129882812501	-493.4884338378909	709.388366699219	49.47716140747073	-492.3194274902346	632.2337646484377	66.59416198730472	-625.7549438476565	367.2744445800782	105.6314926147462	-667.5043945312502	342.0528564453126	117.9421615600587	-632.6609497070315	290.1912231445314	120.0907821655274	-584.8242187500002	28.31406021118165	189.4795379638672	-634.8611450195315	18.75354385375977	143.2790069580079	-503.413513183594	1022.078063964844	210.1155242919923	-537.6304321289065	1233.640014648438	196.3936462402345	-488.4652404785159	1082.361694335938	233.3287658691407	-792.108764648438	78.23944091796878	205.781219482422	-492.8466796875002	1021.80615234375	260.3064575195314	-530.8669433593752	680.8153076171877	68.86572265625003	-470.139099121094	1489.141967773438	179.5546264648438	-38.75708007812501	22.62887763977051	245.5250549316407	-491.4573974609377	1410.337890625	353.2821655273439	
72	0.355	-348.5547790527345	1394.843994140625	193.4467010498048	-300.4230041503907	1201.111694335938	204.1708374023439	-305.7322692871095	996.561401367188	342.5012817382814	-476.676208496094	1032.538818359375	282.5049438476564	-494.5018005371096	1035.428466796875	184.7001342773438	-331.2443237304689	993.6011352539067	64.16426849365237	-270.2544860839845	745.806579589844	392.6324157714846	-312.0366821289064	701.669616699219	378.7894287109376	-274.697235107422	669.0234375000002	371.9497985839845	-101.9322891235352	381.8732910156251	327.1802978515626	-119.0012512207032	323.2889404296876	333.5050048828126	-72.9019470214844	308.6368713378907	320.3284301757814	126.6366271972657	79.26918792724612	308.0295715332032	156.059799194336	123.8075485229493	269.108123779297	-487.2955017089846	709.2950439453127	49.49679946899417	-486.5306701660159	632.0938110351565	66.42141723632815	-621.7518310546877	368.1419067382814	105.4828643798829	-663.7917480468752	343.3447265625001	117.8168029785157	-629.441833496094	291.1482238769532	119.935661315918	-584.7615356445315	28.29892539978029	189.4484863281251	-634.8275146484377	18.78396606445313	143.3155364990235	-495.2431335449221	1021.146545410157	210.5038146972657	-529.8562622070315	1232.492919921875	196.681610107422	-480.302185058594	1081.451538085938	233.6706695556642	-791.0988159179692	81.0712585449219	205.3735656738282	-484.6181640625002	1020.904907226563	260.6856384277345	-524.7449340820315	680.9319458007815	69.08314514160159	-462.7540588378909	1488.148803710938	179.9078216552735	-27.67105674743654	22.40034103393555	244.0531158447267	-483.8859558105471	1409.195434570313	353.6174621582032	
